<mxfile host="Electron" modified="2023-11-29T21:01:30.265Z" agent="Mozilla/5.0 (Windows NT 10.0; Win64; x64) AppleWebKit/537.36 (KHTML, like Gecko) draw.io/22.1.2 Chrome/114.0.5735.289 Electron/25.9.4 Safari/537.36" etag="LDuQRdMUtAklJHSs94wT" version="22.1.2" type="device">
  <diagram name="Page-1" id="e7e014a7-5840-1c2e-5031-d8a46d1fe8dd">
    <mxGraphModel dx="1036" dy="606" grid="1" gridSize="10" guides="1" tooltips="1" connect="1" arrows="1" fold="1" page="1" pageScale="1" pageWidth="1169" pageHeight="826" background="none" math="0" shadow="0">
      <root>
        <mxCell id="0" />
        <mxCell id="1" parent="0" />
        <mxCell id="2" value="User" style="swimlane;whiteSpace=wrap" parent="1" vertex="1">
          <mxGeometry x="164.5" y="128" width="280" height="570" as="geometry" />
        </mxCell>
        <mxCell id="5" value="" style="ellipse;shape=startState;fillColor=#000000;strokeColor=#ff0000;" parent="2" vertex="1">
          <mxGeometry x="100" y="40" width="30" height="30" as="geometry" />
        </mxCell>
        <mxCell id="6" value="" style="edgeStyle=elbowEdgeStyle;elbow=horizontal;verticalAlign=bottom;endArrow=open;endSize=8;strokeColor=#FF0000;endFill=1;rounded=0" parent="2" source="5" target="7" edge="1">
          <mxGeometry x="100" y="40" as="geometry">
            <mxPoint x="115" y="110" as="targetPoint" />
          </mxGeometry>
        </mxCell>
        <mxCell id="7" value="Clicks on create &#xa;button" style="" parent="2" vertex="1">
          <mxGeometry x="60" y="110" width="110" height="50" as="geometry" />
        </mxCell>
        <mxCell id="zK4nOXNYA56YIb2ZK60_-47" value="" style="shape=sumEllipse;perimeter=ellipsePerimeter;whiteSpace=wrap;html=1;backgroundOutline=1;" parent="2" vertex="1">
          <mxGeometry x="97.75" y="322" width="34.5" height="38" as="geometry" />
        </mxCell>
        <mxCell id="3" value="User Post Service" style="swimlane;whiteSpace=wrap;startSize=23;" parent="1" vertex="1">
          <mxGeometry x="445" y="128" width="280" height="570" as="geometry" />
        </mxCell>
        <mxCell id="zK4nOXNYA56YIb2ZK60_-43" style="edgeStyle=orthogonalEdgeStyle;rounded=0;orthogonalLoop=1;jettySize=auto;html=1;" parent="3" source="15" target="21" edge="1">
          <mxGeometry relative="1" as="geometry" />
        </mxCell>
        <mxCell id="15" value="Validate User Input" style="" parent="3" vertex="1">
          <mxGeometry x="85.5" y="110" width="110" height="50" as="geometry" />
        </mxCell>
        <mxCell id="zK4nOXNYA56YIb2ZK60_-46" style="edgeStyle=orthogonalEdgeStyle;rounded=0;orthogonalLoop=1;jettySize=auto;html=1;" parent="3" source="21" edge="1">
          <mxGeometry relative="1" as="geometry">
            <mxPoint x="-165" y="322" as="targetPoint" />
          </mxGeometry>
        </mxCell>
        <mxCell id="zK4nOXNYA56YIb2ZK60_-48" value="No" style="edgeLabel;html=1;align=center;verticalAlign=middle;resizable=0;points=[];" parent="zK4nOXNYA56YIb2ZK60_-46" vertex="1" connectable="0">
          <mxGeometry x="-0.8896" y="1" relative="1" as="geometry">
            <mxPoint y="-10" as="offset" />
          </mxGeometry>
        </mxCell>
        <mxCell id="rVtza_RH2sRo1ufOeLDa-40" style="edgeStyle=orthogonalEdgeStyle;rounded=0;orthogonalLoop=1;jettySize=auto;html=1;" edge="1" parent="3" source="21">
          <mxGeometry relative="1" as="geometry">
            <mxPoint x="140.5" y="292" as="targetPoint" />
          </mxGeometry>
        </mxCell>
        <mxCell id="rVtza_RH2sRo1ufOeLDa-41" value="Yes" style="edgeLabel;html=1;align=center;verticalAlign=middle;resizable=0;points=[];" vertex="1" connectable="0" parent="rVtza_RH2sRo1ufOeLDa-40">
          <mxGeometry x="-0.4777" y="2" relative="1" as="geometry">
            <mxPoint x="13" as="offset" />
          </mxGeometry>
        </mxCell>
        <mxCell id="21" value="is valid" style="rhombus;fillColor=#ffffc0;strokeColor=#ff0000;" parent="3" vertex="1">
          <mxGeometry x="100.5" y="192" width="80" height="40" as="geometry" />
        </mxCell>
        <mxCell id="4" value="File Handling Service" style="swimlane;whiteSpace=wrap" parent="1" vertex="1">
          <mxGeometry x="724.5" y="128" width="280" height="570" as="geometry" />
        </mxCell>
        <mxCell id="38" value="" style="ellipse;shape=endState;fillColor=#000000;strokeColor=#ff0000" parent="4" vertex="1">
          <mxGeometry x="130" y="500" width="30" height="30" as="geometry" />
        </mxCell>
        <mxCell id="39" value="" style="endArrow=open;strokeColor=#FF0000;endFill=1;rounded=0" parent="4" target="38" edge="1">
          <mxGeometry relative="1" as="geometry">
            <mxPoint x="145" y="455" as="sourcePoint" />
          </mxGeometry>
        </mxCell>
        <mxCell id="25" value="" style="shape=line;strokeWidth=6;strokeColor=#ff0000;rotation=90" parent="4" vertex="1">
          <mxGeometry x="35.5" y="412" width="50" height="15" as="geometry" />
        </mxCell>
        <mxCell id="zK4nOXNYA56YIb2ZK60_-41" value="&lt;font style=&quot;font-size: 22px;&quot;&gt;Create Post&lt;/font&gt;" style="text;html=1;strokeColor=none;fillColor=none;align=center;verticalAlign=middle;whiteSpace=wrap;rounded=0;" parent="1" vertex="1">
          <mxGeometry x="517" y="60" width="135" height="30" as="geometry" />
        </mxCell>
        <mxCell id="zK4nOXNYA56YIb2ZK60_-42" style="edgeStyle=orthogonalEdgeStyle;rounded=0;orthogonalLoop=1;jettySize=auto;html=1;entryX=0;entryY=0.5;entryDx=0;entryDy=0;" parent="1" source="7" target="15" edge="1">
          <mxGeometry relative="1" as="geometry" />
        </mxCell>
      </root>
    </mxGraphModel>
  </diagram>
</mxfile>
